<mxfile host="app.diagrams.net" modified="2023-02-11T18:10:59.864Z" agent="5.0 (Windows NT 10.0; Win64; x64) AppleWebKit/537.36 (KHTML, like Gecko) Chrome/109.0.0.0 Safari/537.36 Edg/109.0.1518.78" etag="YYznmCF8GcgMrFHA7TpD" version="20.8.18" type="github">
  <diagram name="PÃ¡gina-1" id="5FLPpfYfbuW2A5UojxIr">
    <mxGraphModel dx="2361" dy="1106" grid="0" gridSize="10" guides="1" tooltips="1" connect="1" arrows="1" fold="1" page="0" pageScale="1" pageWidth="827" pageHeight="1169" background="#379693" math="0" shadow="0">
      <root>
        <mxCell id="0" />
        <mxCell id="1" parent="0" />
        <mxCell id="kRpjeAVi8ghjUZTDgTd5-1" value="&lt;font style=&quot;font-size: 24px;&quot;&gt;&lt;b&gt;Level 1:&lt;br&gt;Home&lt;br&gt;&lt;/b&gt;&lt;/font&gt;" style="text;html=1;strokeColor=none;fillColor=none;align=center;verticalAlign=middle;whiteSpace=wrap;rounded=0;" vertex="1" parent="1">
          <mxGeometry x="20" y="145" width="110" height="30" as="geometry" />
        </mxCell>
        <mxCell id="kRpjeAVi8ghjUZTDgTd5-2" value="" style="strokeWidth=2;html=1;shape=mxgraph.flowchart.annotation_2;align=left;labelPosition=right;pointerEvents=1;fontSize=24;" vertex="1" parent="1">
          <mxGeometry x="130" y="60" width="50" height="200" as="geometry" />
        </mxCell>
        <mxCell id="kRpjeAVi8ghjUZTDgTd5-3" value="1. Splash screen - welcome view.&amp;nbsp;" style="text;html=1;strokeColor=none;fillColor=none;align=left;verticalAlign=middle;whiteSpace=wrap;rounded=0;fontSize=24;" vertex="1" parent="1">
          <mxGeometry x="180" y="80" width="380" height="30" as="geometry" />
        </mxCell>
        <mxCell id="kRpjeAVi8ghjUZTDgTd5-4" value="2. Sign-in button." style="text;html=1;strokeColor=none;fillColor=none;align=left;verticalAlign=middle;whiteSpace=wrap;rounded=0;fontSize=24;" vertex="1" parent="1">
          <mxGeometry x="180" y="140" width="300" height="30" as="geometry" />
        </mxCell>
        <mxCell id="kRpjeAVi8ghjUZTDgTd5-5" value="3. Sign-up button." style="text;html=1;strokeColor=none;fillColor=none;align=left;verticalAlign=middle;whiteSpace=wrap;rounded=0;fontSize=24;" vertex="1" parent="1">
          <mxGeometry x="180" y="200" width="300" height="30" as="geometry" />
        </mxCell>
        <mxCell id="kRpjeAVi8ghjUZTDgTd5-6" value="&lt;font style=&quot;font-size: 24px;&quot;&gt;&lt;b&gt;Level 2 Sign in&lt;/b&gt;&lt;/font&gt;" style="text;html=1;strokeColor=none;fillColor=none;align=center;verticalAlign=middle;whiteSpace=wrap;rounded=0;" vertex="1" parent="1">
          <mxGeometry x="20" y="385" width="110" height="30" as="geometry" />
        </mxCell>
        <mxCell id="kRpjeAVi8ghjUZTDgTd5-7" value="" style="strokeWidth=2;html=1;shape=mxgraph.flowchart.annotation_2;align=left;labelPosition=right;pointerEvents=1;fontSize=24;" vertex="1" parent="1">
          <mxGeometry x="130" y="300" width="50" height="200" as="geometry" />
        </mxCell>
        <mxCell id="kRpjeAVi8ghjUZTDgTd5-8" value="1. Email text box." style="text;html=1;strokeColor=none;fillColor=none;align=left;verticalAlign=middle;whiteSpace=wrap;rounded=0;fontSize=24;" vertex="1" parent="1">
          <mxGeometry x="180" y="320" width="380" height="30" as="geometry" />
        </mxCell>
        <mxCell id="kRpjeAVi8ghjUZTDgTd5-9" value="2. Password text box." style="text;html=1;strokeColor=none;fillColor=none;align=left;verticalAlign=middle;whiteSpace=wrap;rounded=0;fontSize=24;" vertex="1" parent="1">
          <mxGeometry x="180" y="360" width="300" height="30" as="geometry" />
        </mxCell>
        <mxCell id="kRpjeAVi8ghjUZTDgTd5-10" value="3. Sign-in button." style="text;html=1;strokeColor=none;fillColor=none;align=left;verticalAlign=middle;whiteSpace=wrap;rounded=0;fontSize=24;" vertex="1" parent="1">
          <mxGeometry x="180" y="400" width="300" height="30" as="geometry" />
        </mxCell>
        <mxCell id="kRpjeAVi8ghjUZTDgTd5-11" value="4. Link to recover the password." style="text;html=1;strokeColor=none;fillColor=none;align=left;verticalAlign=middle;whiteSpace=wrap;rounded=0;fontSize=24;" vertex="1" parent="1">
          <mxGeometry x="180" y="440" width="370" height="30" as="geometry" />
        </mxCell>
        <mxCell id="kRpjeAVi8ghjUZTDgTd5-12" value="&lt;font style=&quot;font-size: 24px;&quot;&gt;&lt;b&gt;Level 3 User Account&lt;/b&gt;&lt;/font&gt;" style="text;html=1;strokeColor=none;fillColor=none;align=center;verticalAlign=middle;whiteSpace=wrap;rounded=0;" vertex="1" parent="1">
          <mxGeometry x="20" y="740" width="110" height="30" as="geometry" />
        </mxCell>
        <mxCell id="kRpjeAVi8ghjUZTDgTd5-13" value="" style="strokeWidth=2;html=1;shape=mxgraph.flowchart.annotation_2;align=left;labelPosition=right;pointerEvents=1;fontSize=24;" vertex="1" parent="1">
          <mxGeometry x="130" y="560" width="50" height="400" as="geometry" />
        </mxCell>
        <mxCell id="kRpjeAVi8ghjUZTDgTd5-15" value="" style="strokeWidth=2;html=1;shape=mxgraph.flowchart.annotation_2;align=left;labelPosition=right;pointerEvents=1;fontSize=24;" vertex="1" parent="1">
          <mxGeometry x="130" y="300" width="50" height="200" as="geometry" />
        </mxCell>
        <mxCell id="kRpjeAVi8ghjUZTDgTd5-16" value="4. Link to recover the password." style="text;html=1;strokeColor=none;fillColor=none;align=left;verticalAlign=middle;whiteSpace=wrap;rounded=0;fontSize=24;" vertex="1" parent="1">
          <mxGeometry x="180" y="440" width="370" height="30" as="geometry" />
        </mxCell>
        <mxCell id="kRpjeAVi8ghjUZTDgTd5-17" value="1. Full name." style="text;html=1;strokeColor=none;fillColor=none;align=left;verticalAlign=middle;whiteSpace=wrap;rounded=0;fontSize=24;" vertex="1" parent="1">
          <mxGeometry x="447" y="590" width="163" height="30" as="geometry" />
        </mxCell>
        <mxCell id="kRpjeAVi8ghjUZTDgTd5-18" value="2. Profile image." style="text;html=1;strokeColor=none;fillColor=none;align=left;verticalAlign=middle;whiteSpace=wrap;rounded=0;fontSize=24;" vertex="1" parent="1">
          <mxGeometry x="447" y="630" width="203" height="30" as="geometry" />
        </mxCell>
        <mxCell id="kRpjeAVi8ghjUZTDgTd5-19" value="" style="strokeWidth=2;html=1;shape=mxgraph.flowchart.annotation_2;align=left;labelPosition=right;pointerEvents=1;fontSize=24;" vertex="1" parent="1">
          <mxGeometry x="397" y="570" width="50" height="200" as="geometry" />
        </mxCell>
        <mxCell id="kRpjeAVi8ghjUZTDgTd5-20" value="4. City - Address." style="text;html=1;strokeColor=none;fillColor=none;align=left;verticalAlign=middle;whiteSpace=wrap;rounded=0;fontSize=24;" vertex="1" parent="1">
          <mxGeometry x="447" y="710" width="213" height="30" as="geometry" />
        </mxCell>
        <mxCell id="kRpjeAVi8ghjUZTDgTd5-21" value="3. User email." style="text;html=1;strokeColor=none;fillColor=none;align=left;verticalAlign=middle;whiteSpace=wrap;rounded=0;fontSize=24;" vertex="1" parent="1">
          <mxGeometry x="447" y="670" width="183" height="30" as="geometry" />
        </mxCell>
        <mxCell id="kRpjeAVi8ghjUZTDgTd5-28" value="1. User profile." style="text;html=1;strokeColor=none;fillColor=none;align=left;verticalAlign=middle;whiteSpace=wrap;rounded=0;fontSize=24;" vertex="1" parent="1">
          <mxGeometry x="190" y="655" width="170" height="30" as="geometry" />
        </mxCell>
        <mxCell id="kRpjeAVi8ghjUZTDgTd5-29" value="2. Update info button." style="text;html=1;strokeColor=none;fillColor=none;align=left;verticalAlign=middle;whiteSpace=wrap;rounded=0;fontSize=24;" vertex="1" parent="1">
          <mxGeometry x="190" y="820" width="250" height="30" as="geometry" />
        </mxCell>
        <mxCell id="kRpjeAVi8ghjUZTDgTd5-30" value="3. Logout button" style="text;html=1;strokeColor=none;fillColor=none;align=left;verticalAlign=middle;whiteSpace=wrap;rounded=0;fontSize=24;" vertex="1" parent="1">
          <mxGeometry x="190" y="890" width="250" height="30" as="geometry" />
        </mxCell>
        <mxCell id="kRpjeAVi8ghjUZTDgTd5-31" value="&lt;font style=&quot;font-size: 24px;&quot;&gt;&lt;b&gt;Level 4 &lt;br&gt;Main Performance&lt;/b&gt;&lt;/font&gt;" style="text;html=1;strokeColor=none;fillColor=none;align=center;verticalAlign=middle;whiteSpace=wrap;rounded=0;" vertex="1" parent="1">
          <mxGeometry x="-70" y="1170" width="190" height="80" as="geometry" />
        </mxCell>
        <mxCell id="kRpjeAVi8ghjUZTDgTd5-32" value="" style="strokeWidth=2;html=1;shape=mxgraph.flowchart.annotation_2;align=left;labelPosition=right;pointerEvents=1;fontSize=24;" vertex="1" parent="1">
          <mxGeometry x="130" y="1010" width="50" height="400" as="geometry" />
        </mxCell>
        <mxCell id="kRpjeAVi8ghjUZTDgTd5-33" value="1. Images." style="text;html=1;strokeColor=none;fillColor=none;align=left;verticalAlign=middle;whiteSpace=wrap;rounded=0;fontSize=24;" vertex="1" parent="1">
          <mxGeometry x="447" y="1040" width="163" height="30" as="geometry" />
        </mxCell>
        <mxCell id="kRpjeAVi8ghjUZTDgTd5-34" value="" style="strokeWidth=2;html=1;shape=mxgraph.flowchart.annotation_2;align=left;labelPosition=right;pointerEvents=1;fontSize=24;" vertex="1" parent="1">
          <mxGeometry x="397" y="1020" width="50" height="200" as="geometry" />
        </mxCell>
        <mxCell id="kRpjeAVi8ghjUZTDgTd5-35" value="1. App Services Section" style="text;html=1;strokeColor=none;fillColor=none;align=left;verticalAlign=middle;whiteSpace=wrap;rounded=0;fontSize=24;" vertex="1" parent="1">
          <mxGeometry x="190" y="1105" width="170" height="30" as="geometry" />
        </mxCell>
        <mxCell id="kRpjeAVi8ghjUZTDgTd5-36" value="2. More Features button." style="text;html=1;strokeColor=none;fillColor=none;align=left;verticalAlign=middle;whiteSpace=wrap;rounded=0;fontSize=24;" vertex="1" parent="1">
          <mxGeometry x="190" y="1270" width="250" height="30" as="geometry" />
        </mxCell>
        <mxCell id="kRpjeAVi8ghjUZTDgTd5-37" value="3. Search product bar." style="text;html=1;strokeColor=none;fillColor=none;align=left;verticalAlign=middle;whiteSpace=wrap;rounded=0;fontSize=24;" vertex="1" parent="1">
          <mxGeometry x="190" y="1340" width="250" height="30" as="geometry" />
        </mxCell>
        <mxCell id="kRpjeAVi8ghjUZTDgTd5-38" value="2. Customers." style="text;html=1;strokeColor=none;fillColor=none;align=left;verticalAlign=middle;whiteSpace=wrap;rounded=0;fontSize=24;" vertex="1" parent="1">
          <mxGeometry x="447" y="1080" width="203" height="30" as="geometry" />
        </mxCell>
        <mxCell id="kRpjeAVi8ghjUZTDgTd5-39" value="4. Products list." style="text;html=1;strokeColor=none;fillColor=none;align=left;verticalAlign=middle;whiteSpace=wrap;rounded=0;fontSize=24;" vertex="1" parent="1">
          <mxGeometry x="447" y="1160" width="213" height="30" as="geometry" />
        </mxCell>
        <mxCell id="kRpjeAVi8ghjUZTDgTd5-40" value="3. Prices." style="text;html=1;strokeColor=none;fillColor=none;align=left;verticalAlign=middle;whiteSpace=wrap;rounded=0;fontSize=24;" vertex="1" parent="1">
          <mxGeometry x="447" y="1120" width="183" height="30" as="geometry" />
        </mxCell>
        <mxCell id="kRpjeAVi8ghjUZTDgTd5-43" value="&lt;font style=&quot;font-size: 24px;&quot;&gt;&lt;b&gt;Level 4 &lt;br&gt;Main Performance&lt;/b&gt;&lt;/font&gt;" style="text;html=1;strokeColor=none;fillColor=none;align=center;verticalAlign=middle;whiteSpace=wrap;rounded=0;" vertex="1" parent="1">
          <mxGeometry x="-70" y="1170" width="190" height="80" as="geometry" />
        </mxCell>
        <mxCell id="kRpjeAVi8ghjUZTDgTd5-44" value="" style="strokeWidth=2;html=1;shape=mxgraph.flowchart.annotation_2;align=left;labelPosition=right;pointerEvents=1;fontSize=24;" vertex="1" parent="1">
          <mxGeometry x="130" y="1010" width="50" height="400" as="geometry" />
        </mxCell>
        <mxCell id="kRpjeAVi8ghjUZTDgTd5-45" value="1. App Services Section" style="text;html=1;strokeColor=none;fillColor=none;align=left;verticalAlign=middle;whiteSpace=wrap;rounded=0;fontSize=24;" vertex="1" parent="1">
          <mxGeometry x="190" y="1105" width="170" height="30" as="geometry" />
        </mxCell>
        <mxCell id="kRpjeAVi8ghjUZTDgTd5-48" value="2. Payment form." style="text;html=1;strokeColor=none;fillColor=none;align=left;verticalAlign=middle;whiteSpace=wrap;rounded=0;fontSize=24;" vertex="1" parent="1">
          <mxGeometry x="190" y="1630" width="330" height="30" as="geometry" />
        </mxCell>
        <mxCell id="kRpjeAVi8ghjUZTDgTd5-49" value="3. Customer and delivery information." style="text;html=1;strokeColor=none;fillColor=none;align=left;verticalAlign=middle;whiteSpace=wrap;rounded=0;fontSize=24;" vertex="1" parent="1">
          <mxGeometry x="190" y="1690" width="420" height="30" as="geometry" />
        </mxCell>
        <mxCell id="kRpjeAVi8ghjUZTDgTd5-53" value="&lt;font style=&quot;font-size: 24px;&quot;&gt;&lt;b&gt;Level 5&lt;br&gt;Purchase Area&lt;/b&gt;&lt;/font&gt;" style="text;html=1;strokeColor=none;fillColor=none;align=center;verticalAlign=middle;whiteSpace=wrap;rounded=0;" vertex="1" parent="1">
          <mxGeometry x="-70" y="1630" width="190" height="80" as="geometry" />
        </mxCell>
        <mxCell id="kRpjeAVi8ghjUZTDgTd5-54" value="" style="strokeWidth=2;html=1;shape=mxgraph.flowchart.annotation_2;align=left;labelPosition=right;pointerEvents=1;fontSize=24;" vertex="1" parent="1">
          <mxGeometry x="130" y="1540" width="50" height="330" as="geometry" />
        </mxCell>
        <mxCell id="kRpjeAVi8ghjUZTDgTd5-55" value="1. Purchase confirmation view." style="text;html=1;strokeColor=none;fillColor=none;align=left;verticalAlign=middle;whiteSpace=wrap;rounded=0;fontSize=24;" vertex="1" parent="1">
          <mxGeometry x="190" y="1565" width="340" height="30" as="geometry" />
        </mxCell>
        <mxCell id="kRpjeAVi8ghjUZTDgTd5-61" value="4. Buy button." style="text;html=1;strokeColor=none;fillColor=none;align=left;verticalAlign=middle;whiteSpace=wrap;rounded=0;fontSize=24;" vertex="1" parent="1">
          <mxGeometry x="190" y="1750" width="330" height="30" as="geometry" />
        </mxCell>
        <mxCell id="kRpjeAVi8ghjUZTDgTd5-62" value="5. Success message confirmation." style="text;html=1;strokeColor=none;fillColor=none;align=left;verticalAlign=middle;whiteSpace=wrap;rounded=0;fontSize=24;" vertex="1" parent="1">
          <mxGeometry x="190" y="1810" width="370" height="30" as="geometry" />
        </mxCell>
      </root>
    </mxGraphModel>
  </diagram>
</mxfile>
